<svg width="975.26" height="825.1799999999998" xmlns="http://www.w3.org/2000/svg" xmlns:svg="http://www.w3.org/2000/svg" xmlns:se="http://svg-edit.googlecode.com" data-name="Layer 1">
 <title>work time</title>
 <g class="layer">
  <title>Layer 1</title>
  <ellipse cx="91" cy="703.78" rx="41.4" ry="6.35" fill="#6c63ff" opacity="0.1" id="svg_1"/>
  <ellipse cx="688.12" cy="712.42" rx="41.4" ry="6.35" fill="#6c63ff" opacity="0.1" id="svg_2"/>
  <ellipse cx="586.13" cy="771.25" rx="41.4" ry="6.35" fill="#6c63ff" opacity="0.1" id="svg_3"/>
  <ellipse cx="225.15" cy="656.4" rx="41.4" ry="6.35" fill="#6c63ff" opacity="0.1" id="svg_4"/>
  <polygon points="227.35 601.47 688.12 653.25 688.12 667.94 226.18 614.4 227.35 601.47" fill="#eaecf0" id="svg_11"/>
  <polygon points="226.65 656.05 217.91 656.05 217.91 438.97 224.2 440.88 224.27 447.39 226.65 656.05" fill="#eaecf0" id="svg_12"/>
  <polygon points="230.5 652.55 226.65 656.05 224.27 447.39 224.2 440.88 228.75 440.88 228.81 447.78 230.5 652.55" fill="#d3dae1" id="svg_13"/>
  <polygon points="92.83 646.95 220.36 602.52 220.36 606.72 92.83 650.8 92.83 646.95" fill="#d3dae1" id="svg_14"/>
  <polygon points="95.11 660.94 92.83 650.8 220.36 606.72 220.36 615.46 95.11 660.94" fill="#eaecf0" id="svg_15"/>
  <polygon points="688.12 425.14 688.12 712.02 681.47 712.02 681.13 445.89 681.12 437.38 688.12 425.14" fill="#eaecf0" id="svg_16"/>
  <polygon points="693.01 423.74 693.01 709.57 688.12 712.02 688.12 425.14 693.01 423.74" fill="#d3dae1" id="svg_17"/>
  <polygon points="586.13 705.73 681.39 652.49 688.12 656.4 586.13 712.02 586.13 705.73" fill="#d3dae1" id="svg_18"/>
  <polygon points="589.11 723.92 586.13 712.02 688.12 656.4 688.12 667.94 589.11 723.92" fill="#eaecf0" id="svg_19"/>
  <polygon points="574.76 470.97 575.11 773.95 584.56 773.95 583.16 467.47 574.76 470.97" fill="#eaecf0" id="svg_20"/>
  <polygon points="589.11 464.67 589.11 771.5 584.56 773.95 583.16 467.47 583.72 467.21 589.11 464.67" fill="#d3dae1" id="svg_21"/>
  <polygon points="91.61 706.08 83.56 706.08 80.8 435.06 80.76 430.39 88.46 430.39 88.52 435.72 91.61 706.08" fill="#eaecf0" id="svg_22"/>
  <polygon points="97.2 703.98 91.61 706.08 88.52 435.72 88.46 430.39 94.41 430.39 94.46 436.24 97.2 703.98" fill="#d3dae1" id="svg_23"/>
  <polygon points="583.72 467.21 589.11 464.67 589.11 476.57 583.86 478.32 583.72 467.21" opacity="0.1" id="svg_24"/>
  <polygon points="693.01 423.74 693.01 441.93 688.12 443.57 681.13 445.89 681.12 437.38 688.12 425.14 693.01 423.74" opacity="0.1" id="svg_25"/>
  <polygon points="693.01 388.75 693.01 439.13 583.86 475.52 583.16 421.64 693.01 388.75" fill="#d48a9b" id="svg_26"/>
  <polygon points="79.36 385.25 222.81 357.97 693.01 388.75 583.16 421.64 79.36 385.25" fill="#efc6cd" id="svg_27"/>
  <polygon points="94.41 430.39 94.46 436.24 88.52 435.72 80.8 435.06 80.76 430.39 94.41 430.39" opacity="0.1" id="svg_28"/>
  <polygon points="228.81 447.78 224.27 447.39 217.91 446.85 217.91 438.97 224.2 440.88 228.75 440.88 228.81 447.78" opacity="0.1" id="svg_29"/>
  <polygon points="79.36 385.25 79.36 432.14 583.86 475.52 583.16 421.64 79.36 385.25" fill="#d48a9b" id="svg_30"/>
  <polygon points="479.37 441 413.48 441 413.48 417.09 479.37 421.73 479.37 441" fill="#d48a9b" id="svg_31"/>
  <polygon points="479.37 441 413.48 441 413.48 417.09 479.37 421.73 479.37 441" opacity="0.1" id="svg_32"/>
  <polygon points="324.96 411.85 324.96 449.63 577.91 468.87 577.91 428.64 479.25 423.04 469.45 431.79 429.22 428.99 414.88 418.49 324.96 411.85" opacity="0.1" id="svg_33"/>
  <polygon points="323.56 410.44 323.56 448.23 576.51 467.47 576.51 427.24 477.85 421.64 468.06 430.39 427.82 427.59 413.48 417.09 323.56 410.44" fill="#fff" id="svg_34"/>
  <polygon points="167.53 400.3 227.35 404.5 226.65 423.51 187.59 423.51 161.46 413.24 167.53 400.3" fill="#d48a9b" id="svg_35"/>
  <polygon points="167.53 400.3 227.35 404.5 226.65 423.51 187.59 423.51 161.46 413.24 167.53 400.3" opacity="0.1" id="svg_36"/>
  <polygon points="87.76 395.05 87.76 428.99 317.27 447.18 317.27 411.14 228.75 405.9 219.31 412.89 183.62 410.8 168.93 401.7 87.76 395.05" opacity="0.1" id="svg_37"/>
  <polygon points="86.36 393.65 86.36 427.59 315.87 445.78 315.87 409.75 227.35 404.5 217.91 411.5 182.22 409.4 167.53 400.3 86.36 393.65" fill="#fff" id="svg_38"/>
  <polygon points="96.65 649.48 98.22 648.94 97.43 660.1 96.65 660.38 96.65 649.48" opacity="0.1" id="svg_39"/>
  <polygon points="577.94 393.78 610.11 395.89 556.8 411.85 529.65 409.88 577.94 393.78" opacity="0.1" id="svg_40"/>
  <polygon points="577.94 392.38 610.11 394.49 556.8 410.44 529.65 408.48 577.94 392.38" fill="#fff" id="svg_41"/>
  <path d="m574.09,395.99c1.27,-0.54 2.62,0.48 4,0.74c0.77,0.15 1.57,0 2.34,0.15c1.58,0.21 3.15,1.27 4.65,0.73" fill="#d3dae1" id="svg_42"/>
  <path d="m572.43,396.96c1.26,-0.55 2.62,0.47 4,0.73c0.77,0.15 1.57,0 2.35,0.15c1.58,0.21 3.14,1.27 4.64,0.73" fill="#d3dae1" id="svg_43"/>
  <path d="m568.63,398.88c1.27,-0.54 2.63,0.48 4,0.74c0.77,0.15 1.57,0 2.35,0.15c1.58,0.21 3.14,1.27 4.64,0.73" fill="#d3dae1" id="svg_44"/>
  <circle cx="50" cy="737.26" r="9.39" fill="#535461" id="svg_45"/>
  <circle cx="66.8" cy="773.99" r="9.39" fill="#535461" id="svg_46"/>
  <circle cx="234.33" cy="780.64" r="9.39" fill="#535461" id="svg_47"/>
  <circle cx="271.76" cy="732.71" r="9.39" fill="#535461" id="svg_48"/>
  <rect x="154.05" y="571.43" width="11.76" height="73.47" fill="#535461" id="svg_49"/>
  <rect x="154.05" y="633" width="11.76" height="11.9" opacity="0.1" id="svg_50"/>
  <rect x="151.78" y="635.8" width="16.3" height="81.52" fill="#3a3768" id="svg_51"/>
  <path d="m382.1,754.2l-106.72,-4.37l0,17.17l123.85,0a18.92,18.92 0 0 0 -17.13,-12.8z" transform="translate(-112.37000274658203,-37.40999984741211) " fill="#3a3768" id="svg_52"/>
  <path d="m168.66,754.2l106.72,-4.37l0,17.17l-123.85,0a18.91,18.91 0 0 1 17.13,-12.8z" transform="translate(-112.37000274658203,-37.40999984741211) " fill="#3a3768" id="svg_53"/>
  <path d="m264.15,751.58l-85.2,42a21.6,21.6 0 0 0 -12,19.35l0,1.28l99.5,-43.38l14,-1.05l82.74,52.83l0,0a21.58,21.58 0 0 0 -8.91,-20.5l-73.83,-52.27l-16.3,1.74z" transform="translate(-112.37000274658203,-37.40999984741211) " fill="#3a3768" id="svg_54"/>
  <path d="m165.81,571.42l0,7.92q-3.09,0.13 -6.3,0.13c-1.85,0 -3.67,0 -5.46,-0.1l0,-7.95l11.76,0z" opacity="0.1" id="svg_55"/>
  <ellipse cx="159.51" cy="563.98" rx="43.39" ry="12.69" fill="#3a3768" id="svg_56"/>
  <path d="m202.52,563.98a5.18,5.18 0 0 1 -1.85,3.67c-5.36,5.22 -21.93,9 -41.53,9c-19.17,0 -35.42,-3.64 -41.17,-8.67a5.5,5.5 0 0 1 -2.23,-4c0,-7 19.43,-12.69 43.4,-12.69s43.38,5.68 43.38,12.69z" opacity="0.1" id="svg_57"/>
  <path d="m202.89,563.98a5.18,5.18 0 0 1 -1.85,3.67c-5.52,-1.38 -9.34,-2.52 -9.34,-2.52s-38.25,2.14 -73.36,2.87a5.5,5.5 0 0 1 -2.23,-4c0,-7 19.43,-12.69 43.4,-12.69s43.38,5.66 43.38,12.67z" opacity="0.1" id="svg_58"/>
  <path d="m50,396.84s14.35,39.19 13.65,62.63s-11.9,67.52 -11.9,67.52s-11.19,35.69 17.5,38.84s122.45,-2.1 122.45,-2.1s35,10.49 46.18,5.94c4.35,-1.76 8.12,-5.64 11.1,-9.73a20.35,20.35 0 0 0 -5.28,-29.05a60.62,60.62 0 0 0 -16.87,-7.24a13.55,13.55 0 0 0 -3.85,-0.47l-122.25,2.41s-13.64,-2.1 -11.19,-15.74s6.64,-55.63 6.64,-55.63s0.7,-51.08 -23.79,-65.42s-22.39,8.04 -22.39,8.04z" fill="#3a3768" id="svg_59"/>
  <path d="m50,396.72s14.35,39.18 13.65,62.62s-11.9,67.53 -11.9,67.53s-11.19,35.68 17.5,38.83s122.45,-2.11 122.45,-2.11s35,10.5 46.18,6c4.35,-1.77 8.12,-5.65 11.1,-9.73a20.36,20.36 0 0 0 -5.28,-29.06a61.22,61.22 0 0 0 -16.87,-7.24a13.19,13.19 0 0 0 -3.85,-0.46l-122.25,2.37s-13.64,-2.1 -11.19,-15.75s6.64,-55.62 6.64,-55.62s0.7,-51.08 -23.79,-65.43s-22.39,8.05 -22.39,8.05z" opacity="0.1" id="svg_60"/>
  <path d="m52.8,395.44s14.35,39.19 13.65,62.63s-11.9,67.52 -11.9,67.52s-11.19,35.69 17.49,38.84s122.45,-2.1 122.45,-2.1s35,10.49 46.19,6c4.35,-1.77 8.12,-5.65 11.1,-9.74a20.35,20.35 0 0 0 -5.28,-29.05a60.62,60.62 0 0 0 -16.87,-7.29a13.55,13.55 0 0 0 -3.85,-0.47l-122.25,2.41s-13.64,-2.1 -11.19,-15.74s6.64,-55.63 6.64,-55.63s0.7,-51.08 -23.79,-65.42s-22.39,8.04 -22.39,8.04z" fill="#3a3768" id="svg_61"/>
  <path d="m413.41,769.73l0,12.65s60.43,1.09 73.74,1.09s31.63,-6.54 32.72,-11.78s-15.27,-9.6 -21.38,-9.81s-6.32,-2.62 -14.18,-6.77c-4.43,-2.34 -11.16,-9.13 -16.18,-14.6c-3.87,-4.22 -6.72,-7.65 -6.72,-7.65s-32.51,-0.65 -41.89,4.58c-2.16,1.21 -3.65,3.57 -4.67,6.5c-3.38,9.77 -1.44,25.79 -1.44,25.79z" transform="translate(-112.37000274658203,-37.40999984741211) " fill="#434175" id="svg_62"/>
  <path d="m414.85,743.94c6.82,-2.37 46.72,-3.29 53.28,-3.43c-3.87,-4.22 -6.72,-7.65 -6.72,-7.65s-32.51,-0.65 -41.89,4.58c-2.16,1.21 -3.65,3.56 -4.67,6.5z" transform="translate(-112.37000274658203,-37.40999984741211) " opacity="0.1" id="svg_63"/>
  <path d="m123.61444,504.78l3.52,2.13l1.32,0.8l5.13,3.08c27.42,16.53 102.21,61.32 106.31,61c1.07,-0.09 4.29,-0.57 8.74,-1.3c1.18,-0.19 2.45,-0.39 3.78,-0.62c17.13,-2.85 45.6,-8 48.78,-9.42c4.36,-2 3.49,6.76 1.74,14.18s-3.05,43 -1.09,47.56s1.09,12 1.09,12l-2.61,39.92l1.75,8.48s-5.89,4.8 -3.49,7.63s0.22,15.06 0.22,15.06c7,-2.62 54.32,-3.49 54.32,-3.49s-2,-17.46 -0.22,-21.6s0.44,-28.8 0.44,-28.8s1.09,-18.76 -0.87,-23.12s0.65,-32.29 0.65,-32.29s1.75,-16.58 2.18,-50.4s-19.2,-34.9 -19.2,-34.9s-2.61,-0.21 -6.59,-0.59c-7.77,-0.75 -20.73,-2.17 -29.39,-4a50.65,50.65 0 0 1 -5.25,-1.4c-10.69,-3.64 -46.68,-3.78 -52.57,-1.16c-5.67,2.52 -11.34,0.19 -11.76,0l0,0l-4.58,-7.42l-43.76,3.73l-4.63,0.4l-43.08,3.67l-3,0.26l-7.88,0.61z" fill="#565387" id="svg_64"/>
  <path d="m302.57,538.24c12.71,6.2 24.84,-15.77 30.49,-28.16c-7.77,-0.75 -20.73,-2.17 -29.39,-4c-5.69,9.51 -13.29,26.23 -1.1,32.16z" opacity="0.1" id="svg_65"/>
  <path d="m264.39,389.81a13.19,13.19 0 0 0 1.54,4.26c4.7,9.52 18.31,29.12 18.31,29.12a31.54,31.54 0 0 1 10,10c3.71,6.33 4.8,21.16 4.8,21.16s8.29,32.94 12.21,37.53c2,2.29 1.09,3.65 -0.27,4.44a19.43,19.43 0 0 0 -6.88,6.45c-5.72,9.19 -14.85,27.44 -2,33.7c17.45,8.51 33.82,-36.09 33.82,-36.09s-3.28,-31.63 -4.15,-37.08s-6.11,-27.93 -6.11,-27.93s-3.71,-9.6 -5.89,-16.36s-8.72,-14.62 -8.72,-14.62s-11.79,-23.56 -15.06,-27.05c-1.52,-1.62 -3.65,-3.66 -5.49,-5.38c-2.13,-2 -3.89,-3.56 -3.89,-3.56s-22.44,16.19 -22.22,21.41z" fill="#ee8e9e" id="svg_66"/>
  <path d="m228.85,767.11l39.7,17.67s51.45,1.09 60.45,-1.31s7,-12.43 -4.8,-14.4s-14.61,-7.19 -18.54,-9.59c-2.65,-1.62 -12.06,-12.09 -17.89,-18.72c-2.81,-3.19 -4.8,-5.5 -4.8,-5.5s-7.64,-20.29 -28.8,-15.71a21.73,21.73 0 0 0 -10.31,5.45c-11.41,10.56 -12.4,31.45 -12.4,31.45l-2.61,10.66z" transform="translate(-112.37000274658203,-37.40999984741211) " fill="#434175" id="svg_67"/>
  <path d="m132.01,507.71l5.13,3.08c27.42,16.53 102.21,61.32 106.31,61c1.07,-0.09 4.29,-0.57 8.74,-1.3c1.18,-0.19 2.45,-0.39 3.78,-0.62l0.15,-0.25a50,50 0 0 0 5,-12.23c4.58,-17.45 -18.11,-30.76 -18.11,-30.76l-4.8,-3.73c-5.45,-9.18 -44.72,-17.86 -44.72,-17.86l-5.06,-3.45l-2.71,-1.82l-0.71,-0.47l-6.14,-4.13l-30.76,2.18l-9.14,5.87l-1,0.62l-3.34,2.19l-2.62,1.68z" opacity="0.1" id="svg_68"/>
  <path d="m243.86,725c8.35,28.89 43.23,19.45 43.23,19.45l0.66,-3.66c-2.81,-3.19 -4.8,-5.5 -4.8,-5.5s-7.64,-20.29 -28.8,-15.71a21.73,21.73 0 0 0 -10.29,5.42z" transform="translate(-112.37000274658203,-37.40999984741211) " opacity="0.1" id="svg_69"/>
  <path d="m122.37,556.48c12.87,0 46,15.49 46,15.49c6.76,5.24 15.92,3.49 15.92,3.49s-16.11,16.36 -15.66,23.13s-9.17,17.89 -9.17,17.89l-29.67,58.68c2.19,41.67 44.94,30.11 44.94,30.11l1.75,-9.82c2.62,-1.31 6.55,-14.4 6.55,-14.4s0,-5.23 2.61,-6.76s8.07,-17.24 8.07,-17.24s11.78,-19.85 11.12,-22.46s8.51,-15.92 8.51,-15.92s15.49,-15.27 14.83,-18s12.46,-16.7 12.46,-16.7a43.9,43.9 0 0 0 11.58,-13.52a50.13,50.13 0 0 0 5,-12.22c3.69,-14.06 -10.31,-25.43 -15.9,-29.32c-1.35,-0.94 -2.21,-1.44 -2.21,-1.44l-4.8,-3.73c-2.48,-4.18 -11.95,-8.26 -21.55,-11.45c-6.92,-2.31 -13.9,-4.17 -18.37,-5.28c-3,-0.73 -4.8,-1.14 -4.8,-1.14l-5.06,-3.4l-1.78,-1.2l-1.63,-1.09l-6.15,-4.13l-13.68,1l-17.08,1.21l-9.13,5.88l-4.36,2.8l-17.05,11s-0.45,4.19 -0.59,9.83c0,0.43 0,0.87 0,1.33c-0.23,11.33 1,27.38 9.3,27.38z" fill="#565387" id="svg_70"/>
  <path d="m188.03,312.14l4.6,16.36s8.08,28.15 8.95,30.11s22,21.82 22.91,22.25s12.39,7 12.39,7s0.91,-36 0,-46.46a29.88,29.88 0 0 1 0.57,-6.86c1.39,-8.21 4.91,-20.24 7.83,-29.51c2.44,-7.77 4.47,-13.59 4.47,-13.59s-51.05,-2.19 -49.3,2.83c0.66,1.9 0.44,5.07 -0.19,8.25c-1.06,5.24 -3.25,10.48 -4.61,10.08a17.94,17.94 0 0 0 -4.05,-0.45c-1.86,-0.08 -3.57,-0.01 -3.57,-0.01z" fill="#ee8e9e" id="svg_71"/>
  <path d="m200.28,302.5a37.76,37.76 0 0 0 45,2.51c2.44,-7.77 4.47,-13.59 4.47,-13.59s-51.05,-2.19 -49.3,2.83c0.68,1.9 0.46,5.07 -0.17,8.25z" opacity="0.1" id="svg_72"/>
  <path d="m186.72,272.22a37.75,37.75 0 1 0 37.75,-37.74a37.57,37.57 0 0 0 -37.75,37.74z" fill="#ee8e9e" id="svg_73"/>
  <path d="m188.03,312.14l4.6,16.36s8.08,28.15 8.95,30.11s22,21.82 22.91,22.25s12.39,7 12.39,7s0.91,-36 0,-46.46a29.88,29.88 0 0 1 0.57,-6.86l-3,12.09l0.22,24.22l1.74,1.31l-3.92,5.89l0,-4.37s-14,-13.52 -16.15,-19.2s-10,-15.94 -10,-15.94s-9,-15 -9.16,-17.65c-0.17,-2 -3.93,-6.76 -5.58,-8.74c-1.86,-0.08 -3.57,-0.01 -3.57,-0.01z" opacity="0.1" id="svg_74"/>
  <path d="m264.39,389.81a13.19,13.19 0 0 0 1.54,4.26c4.77,-0.48 21,-3.52 24.6,-22.08c-2.13,-2 -3.89,-3.56 -3.89,-3.56s-22.47,16.16 -22.25,21.38z" opacity="0.1" id="svg_75"/>
  <path d="m113.02,529.03c4.4,-3.12 8.59,-7.37 11.09,-8.54c3.71,-1.75 9.38,-7.42 9.38,-7.42s1.44,-1 3.65,-2.28c4.05,-2.37 10.69,-5.81 15.77,-6.23c4.55,-0.38 19.69,-1.35 31.59,-2.09l15.53,-1s14.18,-5 20.29,-1.75a64.36,64.36 0 0 0 13.74,5s0,-0.48 0,-1.3l0,0l-4.58,-7.42l-48.39,4.13l-6.15,-4.13l-30.76,2.18l-9.13,5.88l-7.88,0.67l3.52,2.13l-17.05,11s-0.52,4.88 -0.62,11.17z" opacity="0.1" id="svg_76"/>
  <path d="m106.63,530.96a19.87,19.87 0 0 0 6.39,-3.26l0,0c4.39,-3.11 8.57,-7.35 11.06,-8.52c3.71,-1.75 9.38,-7.42 9.38,-7.42s11.57,-7.86 19.42,-8.51c2.14,-0.18 6.62,-0.49 12,-0.84l17.81,-1.14l9.24,-0.58l8.07,-0.49s14.18,-5 20.29,-1.75a64.36,64.36 0 0 0 13.74,5s0.22,-15.27 2,-21.6s4.14,-17.89 4.14,-17.89s2,-15.92 3.93,-23.12s9.6,-47.34 13.53,-50s6.1,2 6.1,2s26.18,-0.44 26.62,-29.23c0,0 -12.22,-12.22 -13.09,-15.27s-12.43,-14.4 -12.43,-14.4s-6.55,-12.22 -14,-12.44a58.74,58.74 0 0 0 -10.5,0.33l-6.3,25.63l0.22,24.22l1.75,1.31l-3.93,5.89l0,-4.29s-14,-13.53 -16.14,-19.2s-10,-15.95 -10,-15.95s-8.94,-15 -9.16,-17.65s-6.33,-9.63 -6.33,-9.63a15.5,15.5 0 0 0 -3.71,0a4,4 0 0 1 -1.62,-0.23a21.91,21.91 0 0 0 -10.9,-0.62c-7.54,1.57 -19,4.43 -22.16,7.86c-4.8,5.24 -11.78,10.26 -19.64,32.07l42.32,15.27l-3.62,6.89l-33.68,64s-1.12,1.82 -2.63,4.19l0,0c-2,3.08 -4.59,7.11 -6.32,9.32c-3.05,3.93 -2.18,16.36 -2.18,16.36s-0.65,5.89 -2.83,8.08s-1.76,10.24 -1.76,10.24l-5.67,21.16s-5.24,4.8 -5.24,7s-4.14,8.29 -4.14,8.29s-6.33,10.44 -0.03,8.92z" fill="#dfe5ee" id="svg_77"/>
  <path d="m134.79,441.59l0,0a33,33 0 0 1 0.67,3.65s17.23,40.36 19.41,42.76c0.67,0.74 3.21,4.37 6.39,9l3.65,5.39c6.59,9.79 14,20.91 14,20.91l16.14,14.18s35.12,2.81 46.28,-8.59c-1.35,-0.94 -2.21,-1.44 -2.21,-1.44l-4.8,-3.73c-2.48,-4.18 -11.95,-8.26 -21.55,-11.45c-8.84,0.06 -16.07,0.78 -16.07,0.78l-2.3,-6.06l-2.4,-6.32l-12.24,-32.08s-7.87,-40.57 -10.49,-42.54s-2,-8.07 -2,-8.07s4.8,-17.23 3.05,-19.63s2.84,-20.08 2.84,-20.08a18.11,18.11 0 0 0 -2.1,-4.89l-33.68,64s-1.08,1.81 -2.59,4.21z" opacity="0.1" id="svg_78"/>
  <path d="m173.63,376.94s-4.58,17.67 -2.83,20.07s-3.06,19.63 -3.06,19.63s-0.65,6.11 2,8.07s10.49,42.54 10.49,42.54l16.9,44.51s52.89,-5.24 47.44,11.34s-49.09,13.09 -49.09,13.09l-16.14,-14.18s-21.82,-32.94 -24,-35.34s-19.42,-42.76 -19.42,-42.76s-0.87,-8.07 -4.58,-12.22s-0.87,-11.15 -0.87,-11.15s-4.58,-52.77 0.22,-59.09s37.94,-3.49 42.94,15.49z" fill="#ee8e9e" id="svg_79"/>
  <path d="m330.06,546.66s-13.75,4.59 -17.43,11.13s17.43,-11.13 17.43,-11.13z" opacity="0.1" id="svg_80"/>
  <path d="m323.07,532.27c-0.43,0.65 -18.82,19.1 -17.67,23.56s17.67,-23.56 17.67,-23.56z" opacity="0.1" id="svg_81"/>
  <path d="m222.07,545.36s-20.51,9.67 -22.26,13.88s22.26,-13.88 22.26,-13.88z" opacity="0.1" id="svg_82"/>
  <path d="m220.76,557.79s-18.51,7.85 -21,9.82s21,-9.82 21,-9.82z" opacity="0.1" id="svg_83"/>
  <path d="m212.25,574.59s-8.2,6.11 -12.72,1.31s12.72,-1.31 12.72,-1.31z" opacity="0.1" id="svg_84"/>
  <path d="m243.01,415.33c-0.44,0.66 -27.71,49.74 -34.91,53.45s34.91,-53.45 34.91,-53.45z" opacity="0.1" id="svg_85"/>
  <path d="m241.7,433.88c0,1.09 -26.62,58 -31,58.68s31,-58.68 31,-58.68z" opacity="0.1" id="svg_86"/>
  <path d="m140.47,470.53s-12.84,27.45 -17.84,29.06s17.84,-29.06 17.84,-29.06z" opacity="0.1" id="svg_87"/>
  <path d="m138.29,458.31s-4.43,9.6 -7.12,9.6s7.12,-9.6 7.12,-9.6z" opacity="0.1" id="svg_88"/>
  <path d="m186.72,272.22a37.57,37.57 0 0 0 2.39,13.21a35.64,35.64 0 0 1 37.23,-36.62c1.83,0.08 4,0.51 4.74,2.17a9.12,9.12 0 0 1 0.45,2.76c0.55,4.24 4.85,6.89 8.89,8.27s8.54,2.26 11.47,5.37c2.68,2.85 3.44,6.94 4.76,10.63a15.26,15.26 0 0 0 3.68,6a37.75,37.75 0 1 0 -73.61,-11.79z" opacity="0.1" id="svg_89"/>
  <path d="m257.21,238.05c-3.1,-4.21 -8.6,-5.67 -13.38,-7.79a42.45,42.45 0 0 1 -23.79,-28.91a14.9,14.9 0 0 0 1.46,18.58c-8.69,-0.59 -18.29,-1.59 -24.18,-8c-1.34,4.62 2.67,9.87 0.48,14.15c-1.88,3.68 -7,4 -10.31,6.5c-3.53,2.62 -4.7,7.37 -4.92,11.76s0.24,8.89 -1.06,13.09c-1,3.19 -3,6.12 -3.2,9.45a16.2,16.2 0 0 0 1.6,7.17a64.74,64.74 0 0 0 9.92,16.48a35.7,35.7 0 0 1 36.51,-43c1.83,0.08 4,0.52 4.74,2.18a9,9 0 0 1 0.45,2.76c0.55,4.23 4.85,6.88 8.89,8.26s8.54,2.27 11.47,5.37c2.68,2.85 3.44,6.94 4.76,10.63s3.87,7.55 7.76,8c0.89,-5.48 1.79,-11 1.24,-16.56c-0.6,-5.95 -4.6,-9.32 -6,-14.5c-1.52,-5.43 1.36,-10.46 -2.44,-15.62z" fill="#603556" id="svg_90"/>
  <path d="m146.63,343.78l-13.74,8.29s-3.93,13.3 -7,15c0,0 27.49,-15.27 48.21,19.85c0,0 -0.65,-4.58 2.18,-6.76s2.18,-11.56 2.18,-11.56a39.54,39.54 0 0 0 2,-4.59c1.9,-4.75 -8.35,-32.23 -33.83,-20.23z" opacity="0.1" id="svg_91"/>
  <path d="m146.15,342.9l-13.75,8.29s-3.93,13.31 -7,15.06c0,0 27.49,-15.28 48.21,19.85c0,0 -0.65,-4.58 2.19,-6.76s2.18,-11.57 2.18,-11.57a37.43,37.43 0 0 0 2,-4.58c1.94,-4.8 -8.35,-32.29 -33.83,-20.29z" fill="#dfe5ee" id="svg_92"/>
  <g opacity="0.1" id="svg_93">
   <path d="m310.83,260.34c-0.05,-3.56 -2.17,-7.48 -1.14,-11l0.18,0.19c0.25,3.64 2.27,7.47 0.96,10.81z" transform="translate(-112.37 -37.41)" id="svg_94"/>
   <path d="m295.38,279.11c-0.21,4 0.15,8 -0.75,11.89c0.33,-3.05 0.15,-6.19 0.31,-9.27a25.68,25.68 0 0 1 0.57,-4.34c-0.06,0.61 -0.11,1.15 -0.13,1.72z" transform="translate(-112.37 -37.41)" id="svg_95"/>
   <path d="m290.68,304.27a10.85,10.85 0 0 1 0.43,-2.34a16.67,16.67 0 0 0 1.61,6.89a64.58,64.58 0 0 0 8.9,15.2a34.61,34.61 0 0 0 0.58,3.9a64.74,64.74 0 0 1 -9.92,-16.48a16.2,16.2 0 0 1 -1.6,-7.17z" transform="translate(-112.37 -37.41)" id="svg_96"/>
   <path d="m334.31,254.72c-0.84,-0.05 -1.7,-0.11 -2.55,-0.18a15.37,15.37 0 0 1 -1.45,-11.27a14.74,14.74 0 0 0 4,11.45z" transform="translate(-112.37 -37.41)" id="svg_97"/>
   <path d="m310.35,294.85a36.28,36.28 0 0 1 28.79,-12.56c1.83,0.09 4,0.52 4.75,2.18a9.38,9.38 0 0 1 0.45,2.76c0.55,4.23 4.84,6.89 8.89,8.26s8.53,2.27 11.46,5.38c2.69,2.85 3.45,6.94 4.77,10.62s3.86,7.54 7.74,8l-0.42,2.62c-3.89,-0.42 -6.44,-4.28 -7.76,-8s-2.08,-7.78 -4.76,-10.63c-2.93,-3.1 -7.43,-4 -11.47,-5.37s-8.34,-4 -8.89,-8.26a9,9 0 0 0 -0.45,-2.76c-0.78,-1.66 -2.91,-2.1 -4.74,-2.18a35.52,35.52 0 0 0 -36.5,28.59a36.12,36.12 0 0 1 8.14,-18.65z" transform="translate(-112.37 -37.41)" id="svg_98"/>
  </g>
  <polygon points="431.8 339.65 431.8 378.78 394.36 375.78 394.36 339.65 431.8 339.65" fill="#3a3768" id="svg_99"/>
  <polygon points="431.8 375.58 431.8 378.78 394.36 375.78 394.36 372.58 431.8 375.58" opacity="0.1" id="svg_100"/>
  <path d="m443.24,381.59l-58.24,-3l0,0a5.7,5.7 0 0 1 5.7,-5.7l46.84,3a5.7,5.7 0 0 1 5.7,5.7z" fill="#3a3768" id="svg_101"/>
  <path d="m514.37,350.4l-201.45,-6a6.12,6.12 0 0 1 -6.13,-6.13l0,-119a6.12,6.12 0 0 1 6.13,-6.12l201.45,6a6.13,6.13 0 0 1 6.13,6.12l0,119a6.13,6.13 0 0 1 -6.13,6.13z" fill="#3a3768" id="svg_102"/>
  <polygon points="515.55 341.7 311.29 335.7 311.29 228.48 515.55 234.48 515.55 341.7" fill="#bfbfbf" id="svg_103" opacity="0.55"/>
  <ellipse cx="413.42" cy="222.94" rx="1.8" ry="1.78" fill="#fff" id="svg_104"/>
  <polygon points="431.76 347.06 394.44 346.46 394.44 347.73 431.76 347.73 431.76 347.06" opacity="0.1" id="svg_105"/>
  <polygon points="363.8 383.88 414.91 387.23 404.02 402.88 347.83 396.88 363.8 383.88" opacity="0.1" id="svg_106"/>
  <polygon points="362.8 382.88 413.91 386.23 403.02 401.88 346.83 395.88 362.8 382.88" fill="#3a3768" id="svg_107"/>
  <polygon points="365.06 384.04 409.63 386.76 400.14 399.51 351.13 394.62 365.06 384.04" fill="#d5e1f4" id="svg_108"/>
 </g>
</svg>